<?xml version="1.0" encoding="utf-8"?>
<!-- Generator: Adobe Illustrator 17.0.0, SVG Export Plug-In . SVG Version: 6.00 Build 0)  -->
<!DOCTYPE svg PUBLIC "-//W3C//DTD SVG 1.1//EN" "http://www.w3.org/Graphics/SVG/1.1/DTD/svg11.dtd">
<svg version="1.1" xmlns="http://www.w3.org/2000/svg" xmlns:xlink="http://www.w3.org/1999/xlink" x="0px" y="0px" width="250px"
	 height="250px" viewBox="0 0 250 250" enable-background="new 0 0 250 250" xml:space="preserve">
<g id="EYEWHITE">
	<circle fill="#FFFFFF" cx="96.161" cy="95.66" r="7.5"/>
	<circle fill="#FFFFFF" cx="153.839" cy="95.66" r="7.5"/>
	<circle fill="#FFFFFF" cx="153.839" cy="152.985" r="7.5"/>
	<circle fill="#FFFFFF" cx="96.161" cy="152.985" r="7.5"/>
	<circle fill="#FFFFFF" cx="95.575" cy="125.067" r="7.5"/>
	<circle fill="#FFFFFF" cx="125.067" cy="95.575" r="7.5"/>
	<circle fill="#FFFFFF" cx="125" cy="125" r="8.875"/>
	<circle fill="#FFFFFF" cx="154.337" cy="124.845" r="7.5"/>
	<circle fill="#FFFFFF" cx="124.845" cy="154.337" r="7.5"/>
</g>
<g id="EyeFrame_3_">
	<path fill="none" stroke="#FCEE21" stroke-width="5" stroke-miterlimit="10" d="M95.575,125.067"/>
	<circle fill="none" stroke="#231F20" stroke-width="2" stroke-miterlimit="10" cx="95.663" cy="125.155" r="7.5"/>
	<g>
		<path fill="#231F20" d="M98.114,127.628L98.114,127.628c-0.679,0.678-1.58,1.05-2.54,1.048c-0.969-0.002-1.88-0.385-2.566-1.077
			c-1.39-1.403-1.378-3.689,0.028-5.094c0.678-0.677,1.58-1.049,2.541-1.047c0.969,0.002,1.879,0.383,2.563,1.073
			C99.531,123.936,99.519,126.222,98.114,127.628z M93.217,122.687c-1.306,1.306-1.318,3.429-0.027,4.732
			c0.637,0.643,1.484,0.998,2.384,1.001c0.891,0.002,1.728-0.343,2.357-0.972l0.091,0.091l-0.09-0.091
			c1.306-1.306,1.317-3.43,0.025-4.734c-0.635-0.641-1.481-0.995-2.381-0.997C94.684,121.713,93.846,122.058,93.217,122.687z"/>
	</g>
	<path fill="none" stroke="#FCEE21" stroke-width="5" stroke-miterlimit="10" d="M125.067,95.575"/>
	<circle fill="none" stroke="#231F20" stroke-width="2" stroke-miterlimit="10" cx="125.155" cy="95.663" r="7.5"/>
	<g>
		<path fill="#231F20" d="M127.606,98.136L127.606,98.136c-0.679,0.678-1.58,1.05-2.54,1.048c-0.969-0.002-1.88-0.385-2.566-1.077
			c-1.39-1.403-1.378-3.689,0.028-5.095c0.678-0.677,1.58-1.049,2.541-1.047c0.969,0.002,1.879,0.383,2.563,1.073
			C129.023,94.443,129.012,96.73,127.606,98.136z M122.71,93.195c-1.306,1.306-1.318,3.429-0.027,4.732
			c0.637,0.643,1.484,0.998,2.384,1.001c0.891,0.002,1.728-0.343,2.357-0.972l0.091,0.091l-0.09-0.091
			c1.306-1.306,1.317-3.43,0.025-4.734c-0.635-0.641-1.481-0.995-2.381-0.997C124.176,92.221,123.338,92.566,122.71,93.195z"/>
	</g>
	<path fill="none" stroke="#FCEE21" stroke-width="5" stroke-miterlimit="10" d="M125.079,124.661"/>
	<circle fill="none" stroke="#231F20" stroke-width="2" stroke-miterlimit="10" cx="125" cy="125" r="8.875"/>
	<g>
		<path fill="#231F20" d="M128.005,128.03L128.005,128.03c-0.803,0.803-1.87,1.243-3.006,1.241
			c-1.147-0.003-2.225-0.455-3.036-1.274c-1.645-1.66-1.63-4.365,0.033-6.028c0.802-0.802,1.87-1.242,3.007-1.239
			c1.147,0.003,2.224,0.454,3.033,1.27C129.682,123.661,129.668,126.366,128.005,128.03z M122.211,122.183
			c-1.546,1.546-1.56,4.057-0.032,5.599c0.754,0.761,1.756,1.182,2.821,1.184c1.054,0.002,2.045-0.406,2.789-1.151l0.108,0.108
			l-0.107-0.108c1.545-1.546,1.559-4.059,0.03-5.602c-0.751-0.758-1.752-1.177-2.817-1.18
			C123.946,121.031,122.955,121.439,122.211,122.183z"/>
	</g>
	<path fill="none" stroke="#FCEE21" stroke-width="5" stroke-miterlimit="10" d="M124.757,154.249"/>
	<circle fill="none" stroke="#231F20" stroke-width="2" stroke-miterlimit="10" cx="124.845" cy="154.337" r="7.5"/>
	<g>
		<path fill="#231F20" d="M127.296,156.811L127.296,156.811c-0.679,0.678-1.58,1.05-2.54,1.048c-0.969-0.002-1.88-0.385-2.566-1.077
			c-1.39-1.403-1.378-3.689,0.028-5.094c0.678-0.677,1.58-1.049,2.541-1.047c0.969,0.002,1.879,0.383,2.563,1.073
			C128.713,153.118,128.702,155.405,127.296,156.811z M122.4,151.87c-1.306,1.306-1.318,3.429-0.027,4.732
			c0.637,0.643,1.484,0.998,2.384,1.001c0.891,0.002,1.728-0.343,2.357-0.972l0.091,0.091l-0.09-0.091
			c1.306-1.306,1.317-3.43,0.025-4.734c-0.635-0.641-1.481-0.995-2.381-0.997C123.866,150.896,123.029,151.241,122.4,151.87z"/>
	</g>
	<path fill="none" stroke="#FCEE21" stroke-width="5" stroke-miterlimit="10" d="M154.249,124.757"/>
	<circle fill="none" stroke="#231F20" stroke-width="2" stroke-miterlimit="10" cx="154.337" cy="124.845" r="7.5"/>
	<g>
		<path fill="#231F20" d="M156.788,127.319L156.788,127.319c-0.679,0.678-1.58,1.05-2.54,1.048c-0.969-0.002-1.88-0.385-2.566-1.077
			c-1.39-1.403-1.378-3.689,0.028-5.094c0.678-0.677,1.58-1.049,2.541-1.047c0.969,0.002,1.879,0.383,2.563,1.073
			C158.206,123.626,158.194,125.912,156.788,127.319z M151.892,122.377c-1.306,1.306-1.318,3.429-0.027,4.732
			c0.637,0.643,1.484,0.998,2.384,1.001c0.891,0.002,1.728-0.343,2.357-0.972l0.091,0.091l-0.09-0.091
			c1.306-1.306,1.317-3.43,0.025-4.734c-0.635-0.641-1.481-0.995-2.381-0.997C153.359,121.404,152.521,121.749,151.892,122.377z"/>
	</g>
	<g>
		<path fill="#231F20" d="M96.145,99.266L96.145,99.266c-0.96,0-1.86-0.375-2.537-1.055c-0.684-0.687-1.058-1.602-1.053-2.576
			c0.009-1.975,1.634-3.582,3.622-3.582c0.958,0,1.859,0.375,2.537,1.056c0.684,0.687,1.058,1.6,1.053,2.571
			C99.758,97.657,98.133,99.266,96.145,99.266z M96.177,92.31c-1.847,0-3.357,1.492-3.365,3.327
			c-0.004,0.905,0.343,1.755,0.978,2.393c0.628,0.631,1.465,0.979,2.354,0.979v0.129l0.001-0.129c1.847,0,3.357-1.494,3.365-3.33
			c0.004-0.902-0.343-1.75-0.979-2.388C97.902,92.659,97.066,92.31,96.177,92.31z"/>
	</g>
	<g>
		<path fill="#231F20" d="M153.824,99.266L153.824,99.266c-0.96,0-1.86-0.375-2.537-1.055c-0.684-0.687-1.058-1.602-1.053-2.576
			c0.009-1.975,1.634-3.582,3.622-3.582c0.958,0,1.859,0.375,2.537,1.056c0.684,0.687,1.058,1.6,1.053,2.571
			C157.437,97.657,155.812,99.266,153.824,99.266z M153.855,92.31c-1.847,0-3.357,1.492-3.365,3.327
			c-0.004,0.905,0.343,1.755,0.978,2.393c0.628,0.631,1.465,0.979,2.354,0.979v0.129l0.001-0.129c1.847,0,3.357-1.494,3.365-3.33
			c0.004-0.902-0.343-1.75-0.979-2.388C155.581,92.659,154.744,92.31,153.855,92.31z"/>
	</g>
	<g>
		<path fill="#231F20" d="M96.145,156.467L96.145,156.467c-0.96,0-1.86-0.375-2.537-1.055c-0.684-0.687-1.058-1.602-1.053-2.576
			c0.009-1.975,1.634-3.582,3.622-3.583c0.958,0,1.859,0.375,2.537,1.056c0.684,0.687,1.058,1.6,1.053,2.571
			C99.758,154.858,98.133,156.467,96.145,156.467z M96.177,149.511c-1.847,0-3.357,1.492-3.365,3.327
			c-0.004,0.905,0.343,1.755,0.978,2.393c0.628,0.631,1.465,0.979,2.354,0.979v0.129l0.001-0.129c1.847,0,3.357-1.494,3.365-3.33
			c0.004-0.902-0.343-1.75-0.979-2.388C97.902,149.86,97.066,149.511,96.177,149.511z"/>
	</g>
	<g>
		<path fill="#231F20" d="M153.824,156.467L153.824,156.467c-0.96,0-1.86-0.375-2.537-1.055c-0.684-0.687-1.058-1.602-1.053-2.576
			c0.009-1.975,1.634-3.582,3.622-3.583c0.958,0,1.859,0.375,2.537,1.056c0.684,0.687,1.058,1.6,1.053,2.571
			C157.437,154.858,155.812,156.467,153.824,156.467z M153.855,149.511c-1.847,0-3.357,1.492-3.365,3.327
			c-0.004,0.905,0.343,1.755,0.978,2.393c0.628,0.631,1.465,0.979,2.354,0.979v0.129l0.001-0.129c1.847,0,3.357-1.494,3.365-3.33
			c0.004-0.902-0.343-1.75-0.979-2.388C155.581,149.86,154.744,149.511,153.855,149.511z"/>
	</g>
	<circle fill="none" stroke="#231F20" stroke-width="2" stroke-miterlimit="10" cx="96.161" cy="95.784" r="7.5"/>
	<circle fill="none" stroke="#231F20" stroke-width="2" stroke-miterlimit="10" cx="153.839" cy="95.784" r="7.5"/>
	<circle fill="none" stroke="#231F20" stroke-width="2" stroke-miterlimit="10" cx="96.161" cy="152.985" r="7.5"/>
	<circle fill="none" stroke="#231F20" stroke-width="2" stroke-miterlimit="10" cx="153.839" cy="152.985" r="7.5"/>
</g>
<g id="DARK_GREEN">
	<path fill="#53BA72" d="M98.023,127.537c1.358-1.359,1.369-3.559,0.025-4.916c-1.355-1.368-3.563-1.384-4.922-0.026
		c-1.358,1.358-1.376,3.552-0.028,4.913C94.46,128.883,96.665,128.896,98.023,127.537z"/>
	<path fill="#53BA72" d="M127.515,98.045c1.358-1.358,1.369-3.559,0.025-4.916c-1.355-1.368-3.563-1.384-4.922-0.026
		c-1.358,1.358-1.376,3.552-0.028,4.913C123.953,99.391,126.157,99.404,127.515,98.045z"/>
	<path fill="#53BA72" d="M127.899,127.923c1.607-1.608,1.62-4.212,0.03-5.817c-1.604-1.618-4.217-1.637-5.824-0.03
		c-1.607,1.607-1.628,4.204-0.033,5.814C123.683,129.515,126.292,129.53,127.899,127.923z"/>
	<path fill="#53BA72" d="M127.205,156.72c1.358-1.359,1.369-3.559,0.025-4.916c-1.355-1.368-3.563-1.384-4.922-0.026
		c-1.358,1.358-1.376,3.552-0.028,4.913C123.643,158.066,125.847,158.078,127.205,156.72z"/>
	<path fill="#53BA72" d="M156.697,127.228c1.358-1.359,1.369-3.559,0.025-4.916c-1.355-1.368-3.563-1.384-4.922-0.026
		c-1.358,1.358-1.376,3.552-0.028,4.913C153.135,128.574,155.34,128.586,156.697,127.228z"/>
	<path fill="#53BA72" d="M96.145,99.138c1.921,0,3.485-1.549,3.494-3.458c0.009-1.925-1.541-3.498-3.462-3.498
		c-1.921,0-3.485,1.539-3.494,3.455C92.674,97.57,94.224,99.138,96.145,99.138z"/>
	<path fill="#53BA72" d="M153.824,99.138c1.921,0,3.485-1.549,3.494-3.458c0.009-1.925-1.541-3.498-3.462-3.498
		c-1.921,0-3.485,1.539-3.494,3.455C150.353,97.57,151.903,99.138,153.824,99.138z"/>
	<path fill="#53BA72" d="M96.145,156.339c1.921,0,3.485-1.549,3.494-3.458c0.009-1.925-1.541-3.498-3.462-3.498
		c-1.921,0-3.485,1.539-3.494,3.455C92.674,154.772,94.224,156.339,96.145,156.339z"/>
	<path fill="#53BA72" d="M153.824,156.339c1.921,0,3.485-1.549,3.494-3.458c0.009-1.925-1.541-3.498-3.462-3.498
		c-1.921,0-3.485,1.539-3.494,3.455C150.353,154.772,151.903,156.339,153.824,156.339z"/>
</g>
<g id="LIGHT_GREEN">
	<path fill="#7DC580" d="M96.162,94.19c0.002,0,0.004,0,0.005,0c0.812,0.003,1.467,0.665,1.463,1.479
		c-0.004,0.81-0.662,1.461-1.471,1.461c-0.002,0-0.004,0-0.006,0c-0.812-0.003-1.467-0.669-1.463-1.48
		C94.694,94.842,95.353,94.19,96.162,94.19 M96.162,93.547c-1.16,0-2.109,0.942-2.114,2.1c-0.003,0.564,0.214,1.096,0.611,1.497
		c0.398,0.403,0.928,0.626,1.492,0.628l0.001,0l0.007,0c1.16,0,2.108-0.942,2.113-2.101c0.003-0.565-0.215-1.097-0.612-1.498
		c-0.397-0.402-0.927-0.624-1.492-0.626h-0.001L96.162,93.547L96.162,93.547z"/>
	<path fill="#7DC580" d="M153.841,94.19c0.002,0,0.004,0,0.005,0c0.812,0.003,1.467,0.665,1.464,1.479
		c-0.004,0.81-0.662,1.461-1.471,1.461c-0.002,0-0.004,0-0.006,0c-0.812-0.003-1.467-0.669-1.463-1.48
		C152.373,94.842,153.031,94.19,153.841,94.19 M153.841,93.547c-1.16,0-2.109,0.942-2.114,2.1c-0.003,0.564,0.214,1.096,0.611,1.497
		c0.398,0.403,0.928,0.626,1.492,0.628l0.001,0l0.007,0c1.16,0,2.108-0.942,2.113-2.101c0.003-0.565-0.215-1.097-0.612-1.498
		c-0.397-0.402-0.927-0.624-1.492-0.626h-0.001L153.841,93.547L153.841,93.547z"/>
	<path fill="#7DC580" d="M96.162,151.391c0.002,0,0.004,0,0.005,0c0.812,0.003,1.467,0.665,1.463,1.479
		c-0.004,0.81-0.662,1.461-1.471,1.461c-0.002,0-0.004,0-0.006,0c-0.812-0.003-1.467-0.669-1.463-1.48
		C94.694,152.043,95.353,151.391,96.162,151.391 M96.162,150.748c-1.16,0-2.109,0.942-2.114,2.1
		c-0.003,0.564,0.214,1.096,0.611,1.497c0.398,0.403,0.928,0.626,1.492,0.628l0.001,0h0.007c1.16,0,2.108-0.942,2.113-2.101
		c0.003-0.565-0.215-1.097-0.612-1.498c-0.397-0.402-0.927-0.624-1.492-0.626h-0.001L96.162,150.748L96.162,150.748z"/>
	<path fill="#7DC580" d="M153.841,151.391c0.002,0,0.004,0,0.005,0c0.812,0.003,1.467,0.665,1.464,1.479
		c-0.004,0.81-0.662,1.461-1.471,1.461c-0.002,0-0.004,0-0.006,0c-0.812-0.003-1.467-0.669-1.463-1.48
		C152.373,152.043,153.031,151.391,153.841,151.391 M153.841,150.748c-1.16,0-2.109,0.942-2.114,2.1
		c-0.003,0.564,0.214,1.096,0.611,1.497c0.398,0.403,0.928,0.626,1.492,0.628l0.001,0h0.007c1.16,0,2.108-0.942,2.113-2.101
		c0.003-0.565-0.215-1.097-0.612-1.498c-0.397-0.402-0.927-0.624-1.492-0.626h-0.001L153.841,150.748L153.841,150.748z"/>
	<path fill="#7DC580" d="M94.536,124.026c0.001-0.001,0.003-0.003,0.004-0.004c0.576-0.572,1.508-0.567,2.08,0.011
		c0.57,0.576,0.565,1.501-0.007,2.073c-0.001,0.001-0.003,0.003-0.004,0.004c-0.576,0.572-1.51,0.564-2.081-0.012
		C93.96,125.526,93.964,124.599,94.536,124.026 M94.082,123.572c-0.821,0.821-0.825,2.157-0.01,2.98
		c0.397,0.401,0.926,0.623,1.491,0.627c0.566,0.004,1.099-0.213,1.499-0.611l0.001-0.001l0.005-0.005
		c0.82-0.82,0.824-2.157,0.009-2.98c-0.398-0.401-0.928-0.624-1.492-0.627c-0.565-0.003-1.097,0.215-1.498,0.612l-0.001,0.001
		L94.082,123.572L94.082,123.572z"/>
	<path fill="#7DC580" d="M124.028,94.534c0.001-0.001,0.003-0.003,0.004-0.004c0.576-0.572,1.508-0.567,2.08,0.011
		c0.57,0.576,0.565,1.501-0.007,2.073c-0.001,0.001-0.003,0.003-0.004,0.004c-0.576,0.572-1.51,0.564-2.081-0.012
		C123.452,96.034,123.456,95.107,124.028,94.534 M123.574,94.08c-0.821,0.821-0.825,2.157-0.01,2.98
		c0.397,0.401,0.926,0.623,1.491,0.627c0.566,0.004,1.099-0.213,1.499-0.611l0.001-0.001l0.005-0.005
		c0.82-0.82,0.824-2.157,0.009-2.98c-0.398-0.401-0.928-0.624-1.492-0.627c-0.565-0.003-1.097,0.215-1.498,0.612l-0.001,0.001
		L123.574,94.08L123.574,94.08z"/>
	<path fill="#7DC580" d="M123.771,123.77c0.002-0.002,0.003-0.003,0.005-0.005c0.682-0.677,1.784-0.671,2.462,0.013
		c0.675,0.681,0.669,1.776-0.008,2.454c-0.002,0.002-0.003,0.003-0.005,0.005c-0.682,0.677-1.787,0.668-2.463-0.014
		C123.089,125.544,123.094,124.447,123.771,123.77 M123.233,123.232c-0.971,0.971-0.976,2.553-0.012,3.526
		c0.47,0.474,1.096,0.737,1.764,0.742c0.67,0.004,1.3-0.253,1.774-0.723l0.001-0.001l0.006-0.006
		c0.971-0.971,0.975-2.553,0.01-3.526c-0.471-0.475-1.098-0.738-1.766-0.742c-0.669-0.003-1.298,0.254-1.772,0.725l-0.001,0.001
		L123.233,123.232L123.233,123.232z"/>
	<path fill="#7DC580" d="M123.719,153.209c0.001-0.001,0.003-0.003,0.004-0.004c0.576-0.572,1.508-0.567,2.08,0.011
		c0.57,0.576,0.565,1.501-0.007,2.074c-0.001,0.001-0.003,0.003-0.004,0.004c-0.576,0.572-1.51,0.564-2.081-0.012
		C123.142,154.708,123.146,153.781,123.719,153.209 M123.264,152.755c-0.821,0.82-0.825,2.157-0.01,2.98
		c0.397,0.401,0.926,0.623,1.491,0.627c0.566,0.004,1.099-0.213,1.499-0.611l0.001-0.001l0.005-0.005
		c0.82-0.82,0.824-2.157,0.009-2.98c-0.398-0.401-0.928-0.624-1.492-0.627c-0.565-0.003-1.097,0.215-1.498,0.612l-0.001,0.001
		L123.264,152.755L123.264,152.755z"/>
	<path fill="#7DC580" d="M153.211,123.717c0.001-0.001,0.003-0.003,0.004-0.004c0.576-0.572,1.508-0.567,2.08,0.011
		c0.57,0.576,0.566,1.501-0.007,2.073c-0.001,0.001-0.003,0.003-0.004,0.004c-0.576,0.572-1.51,0.564-2.081-0.012
		C152.634,125.216,152.638,124.289,153.211,123.717 M152.756,123.262c-0.82,0.821-0.825,2.157-0.01,2.98
		c0.397,0.401,0.926,0.623,1.491,0.627c0.566,0.004,1.099-0.213,1.499-0.611l0.001-0.001l0.005-0.005
		c0.82-0.82,0.824-2.157,0.009-2.98c-0.398-0.401-0.928-0.624-1.492-0.627c-0.565-0.003-1.097,0.215-1.498,0.612l-0.001,0.001
		L152.756,123.262L152.756,123.262z"/>
</g>
<g id="PUPIL">
	<circle fill="#231F20" cx="96.161" cy="95.66" r="1.47"/>
	<circle fill="#231F20" cx="153.839" cy="95.66" r="1.47"/>
	<circle fill="#231F20" cx="96.161" cy="152.861" r="1.47"/>
	<circle fill="#231F20" cx="153.839" cy="152.861" r="1.47"/>
	<circle fill="#231F20" cx="95.575" cy="125.067" r="1.47"/>
	<circle fill="#231F20" cx="125.067" cy="95.575" r="1.47"/>
	<circle fill="#231F20" cx="125" cy="125.001" r="1.74"/>
	<circle fill="#231F20" cx="124.757" cy="154.249" r="1.47"/>
	<circle fill="#231F20" cx="154.249" cy="124.757" r="1.47"/>
</g>
<g id="FRAME_FILL">
	<path d="M166.357,83.141L166.357,83.141l-0.037,0.036c-2.308,2.308-8.7,3.307-9.982,3.317c1.547,0.419,3.007,1.234,4.219,2.446
		c1.212,1.212,2.027,2.673,2.446,4.219c0.01-1.281,1.009-7.674,3.317-9.982C166.334,83.166,166.346,83.154,166.357,83.141
		L166.357,83.141L166.357,83.141z"/>
	<g>
		<path d="M166.358,165.628L166.358,165.628c-0.012-0.012-0.024-0.024-0.036-0.037c-2.308-2.308-3.307-8.7-3.317-9.982
			c-0.419,1.547-1.234,3.007-2.446,4.219c-1.212,1.212-2.673,2.027-4.219,2.446c1.281,0.01,7.673,1.009,9.982,3.317
			C166.333,165.605,166.345,165.617,166.358,165.628L166.358,165.628L166.358,165.628z"/>
	</g>
	<path d="M89.442,159.829c-1.212-1.212-2.027-2.673-2.446-4.219c-0.01,1.281-1.009,7.674-3.317,9.982
		c-0.013,0.013-0.024,0.024-0.036,0.036l0,0l0.001,0.001l0,0c0.012-0.012,0.024-0.024,0.036-0.036
		c2.308-2.308,8.7-3.307,9.982-3.317C92.115,161.856,90.654,161.041,89.442,159.829z"/>
	<path d="M83.643,83.142L83.643,83.142c0.012,0.012,0.024,0.024,0.036,0.037c2.308,2.308,3.307,8.7,3.317,9.982
		c0.419-1.547,1.234-3.007,2.446-4.219c1.212-1.212,2.673-2.027,4.219-2.446c-1.281-0.01-7.674-1.009-9.982-3.317L83.643,83.142
		L83.643,83.142L83.643,83.142z"/>
	<path d="M77.871,125.067L77.871,125.067c0.017,0,0.034,0,0.052,0c3.264,0,8.49,3.814,9.403,4.713
		c-0.797-1.39-1.254-2.999-1.254-4.713c0-1.714,0.456-3.323,1.254-4.713c-0.913,0.899-6.139,4.713-9.403,4.713L77.871,125.067
		L77.871,125.067L77.871,125.067z"/>
	<g>
		<path d="M125.066,77.871L125.066,77.871c0,0.017,0,0.034,0,0.052c0,3.264-3.814,8.49-4.713,9.403
			c1.39-0.797,2.999-1.254,4.713-1.254c1.714,0,3.323,0.456,4.713,1.254c-0.899-0.913-4.713-6.139-4.713-9.403
			C125.067,77.905,125.067,77.888,125.066,77.871L125.066,77.871L125.066,77.871z"/>
	</g>
	<g>
		<path d="M172.129,124.933L172.129,124.933c-0.017,0-0.034,0-0.052,0c-3.264,0-8.49-3.814-9.403-4.713
			c0.797,1.39,1.254,2.999,1.254,4.713l0,0c0,1.714-0.456,3.323-1.254,4.713c0.913-0.899,6.139-4.713,9.403-4.713
			C172.095,124.934,172.112,124.934,172.129,124.933L172.129,124.933"/>
	</g>
	<path d="M124.934,172.129L124.934,172.129c0-0.017,0-0.034,0-0.052c0-3.264,3.814-8.49,4.713-9.403
		c-1.39,0.797-2.999,1.254-4.713,1.254l0,0c-1.714,0-3.323-0.456-4.713-1.254c0.899,0.913,4.713,6.139,4.713,9.403
		c0,0.018,0,0.035,0,0.052H124.934L124.934,172.129z"/>
	<g>
		<path d="M162.954,104.159c0.321-0.345,0.62-0.706,0.896-1.08c1.514-1.727,4.677-4.919,7.376-4.919c0.04,0,0.077,0,0.113,0v0
			c-1.068,0-3.376,0-5.3-0.001c0,0,0,0,0,0h-3.067c-0.012,0-0.018,0-0.018,0c-1.1,4.03-4.792,7.001-9.166,7.001
			c-5.238,0-9.5-4.262-9.5-9.5c0-4.373,2.971-8.065,7-9.166v-0.01h0.027c0,0-0.001-6.253-0.001-8.324h0c0,0.017,0,0.034,0,0.052
			c0,2.671-3.126,5.796-4.865,7.328c-0.528,0.384-1.03,0.811-1.5,1.282c-2.028,2.028-3.273,4.631-3.583,7.441c0,0-0.757,0-1.976,0
			c-0.546,0-1.212,0-1.95,0c-0.019-0.173-0.023-0.349-0.048-0.52c-0.151-2.292-0.171-6.785,1.737-8.694
			c0.028-0.028,0.054-0.054,0.08-0.08l0,0c-0.755,0.755-2.387,2.387-3.748,3.747c0,0,0,0,0,0l-2.169,2.169
			c-0.009,0.009-0.013,0.013-0.013,0.013c0.601,1.052,0.978,2.196,1.144,3.365c0.144,1.011,0.126,2.039-0.055,3.045
			c-0.331,1.84-1.2,3.602-2.62,5.022c-3.704,3.704-9.731,3.704-13.435,0c-1.42-1.42-2.288-3.181-2.62-5.022
			c-0.181-1.006-0.199-2.034-0.055-3.045c0.166-1.168,0.543-2.312,1.144-3.364l-0.007-0.007l0.019-0.019
			c0,0-4.422-4.421-5.887-5.885l0,0c0.012,0.012,0.024,0.024,0.036,0.036c1.888,1.888,1.888,6.308,1.742,8.622
			c-0.032,0.204-0.051,0.411-0.073,0.618c-0.715,0-1.362,0-1.901,0c-1.278,0-2.077,0-2.077,0c-0.311-2.81-1.555-5.413-3.583-7.441
			c-0.47-0.47-0.973-0.897-1.5-1.282c-1.739-1.532-4.865-4.657-4.865-7.328c0-0.018,0-0.035,0-0.052h0
			c0,2.072-0.001,8.324-0.001,8.324h0.027v0.01c4.029,1.1,7,4.792,7,9.166c0,5.238-4.262,9.5-9.5,9.5
			c-4.374,0-8.066-2.971-9.166-7.001c0,0-0.006,0-0.018,0h-3.067c0,0,0,0,0,0c-1.924,0-4.232,0-5.3,0.001v0c0.036,0,0.073,0,0.113,0
			c2.699,0,5.862,3.192,7.376,4.919c0.277,0.374,0.576,0.734,0.896,1.08c0,0,0,0,0,0v0c0.107,0.115,0.216,0.228,0.327,0.339
			c1.983,1.983,4.516,3.218,7.255,3.562c0,0,0,0.502,0,1.346c0,0.765,0,1.882,0,3.163c-0.331,0.026-0.659,0.065-0.985,0.116
			c-2.313,0.146-6.733,0.147-8.622-1.742c-0.013-0.013-0.024-0.024-0.036-0.036l0,0c1.465,1.465,5.885,5.887,5.885,5.887
			l0.019-0.019l0.007,0.007c1.162-0.663,2.435-1.059,3.731-1.192c1.023-0.106,2.058-0.045,3.065,0.18
			c1.7,0.379,3.315,1.224,4.635,2.544c3.704,3.704,3.704,9.731,0,13.435c-1.32,1.32-2.936,2.165-4.635,2.544
			c-1.007,0.225-2.042,0.285-3.065,0.18c-1.296-0.134-2.57-0.529-3.732-1.193c0,0-0.004,0.004-0.013,0.013l-2.169,2.169c0,0,0,0,0,0
			c-1.361,1.361-2.992,2.993-3.747,3.748l0,0c0.025-0.025,0.052-0.052,0.08-0.08c1.908-1.908,6.402-1.888,8.694-1.737
			c0.292,0.044,0.59,0.059,0.887,0.082c0,0.41,0,0.791,0,1.128c0,1.295,0,2.106,0,2.106c-2.739,0.344-5.272,1.579-7.255,3.562
			c-0.111,0.111-0.22,0.225-0.327,0.339v0c0,0,0,0,0,0.001c-0.321,0.345-0.62,0.706-0.896,1.08
			c-1.514,1.727-4.677,4.919-7.376,4.919c-0.04,0-0.077,0-0.113,0v0c1.068,0,3.376,0,5.3,0.001c0,0,0,0,0,0h3.067
			c0.012,0,0.018,0,0.018,0c1.1-4.03,4.792-7.001,9.166-7.001c5.238,0,9.5,4.262,9.5,9.5c0,4.373-2.971,8.065-7,9.166v0.01h-0.027
			c0,0,0.001,6.253,0.001,8.324h0c0-0.017,0-0.034,0-0.052c0-2.671,3.126-5.796,4.865-7.328c0.528-0.384,1.03-0.811,1.5-1.282
			c2.028-2.028,3.273-4.631,3.583-7.441c0,0,0.799,0,2.077,0c0.503,0,1.101,0,1.76,0c0.001,0.118,0.002,0.235,0.007,0.352l0,0
			c0,0,0,0.001,0,0.001c0.017,0.471,0.061,0.937,0.13,1.397c0.151,2.292,0.171,6.785-1.737,8.694
			c-0.028,0.028-0.054,0.054-0.08,0.08l0,0c0.755-0.755,2.387-2.387,3.748-3.747c0,0,0,0,0,0l2.169-2.169
			c0.009-0.009,0.013-0.013,0.013-0.013c-0.811-1.42-1.22-3.006-1.24-4.596c-0.013-1.028,0.141-2.057,0.459-3.045
			c0.447-1.387,1.213-2.692,2.312-3.791c3.704-3.704,9.731-3.704,13.435,0c1.099,1.099,1.866,2.404,2.312,3.791
			c0.318,0.988,0.472,2.016,0.459,3.045c-0.02,1.59-0.429,3.175-1.24,4.594l0.007,0.007l-0.019,0.019c0,0,4.422,4.421,5.887,5.885
			l0,0c-0.012-0.012-0.024-0.024-0.036-0.036c-1.888-1.888-1.888-6.308-1.742-8.622c0.095-0.606,0.144-1.224,0.15-1.848
			c0.728,0,1.385,0,1.925,0c1.219,0,1.976,0,1.976,0c0.311,2.81,1.555,5.413,3.583,7.441c0.47,0.47,0.973,0.897,1.5,1.282
			c1.739,1.532,4.865,4.657,4.865,7.328c0,0.018,0,0.035,0,0.052h0c0-2.072,0.001-8.324,0.001-8.324h-0.027v-0.01
			c-4.029-1.1-7-4.792-7-9.166c0-5.238,4.262-9.5,9.5-9.5c4.374,0,8.066,2.971,9.166,7.001c0,0,0.006,0,0.018,0h3.067c0,0,0,0,0,0
			c1.924,0,4.232,0,5.3-0.001v0c-0.036,0-0.073,0-0.113,0c-2.699,0-5.862-3.192-7.376-4.919c-0.277-0.374-0.576-0.734-0.896-1.08
			c0,0,0-0.001,0-0.001v0c-0.107-0.115-0.216-0.228-0.327-0.339c-1.984-1.983-4.516-3.218-7.255-3.562c0,0,0-0.811,0-2.106
			c0-0.349,0-0.745,0-1.172c0.331-0.026,0.659-0.065,0.984-0.116c2.313-0.146,6.733-0.147,8.622,1.742
			c0.013,0.013,0.024,0.024,0.036,0.036l0,0c-1.465-1.465-5.885-5.887-5.885-5.887l-0.019,0.019l-0.007-0.007
			c-1.162,0.663-2.435,1.059-3.73,1.192c-1.023,0.106-2.058,0.045-3.065-0.179c-1.7-0.379-3.315-1.224-4.635-2.544
			c-3.704-3.704-3.704-9.731,0-13.435c1.32-1.32,2.936-2.165,4.635-2.544c1.007-0.225,2.042-0.285,3.065-0.179
			c1.296,0.134,2.569,0.529,3.732,1.193c0,0,0.004-0.004,0.013-0.013l2.169-2.169c0,0,0,0,0,0c1.361-1.361,2.992-2.993,3.747-3.748
			l0,0c-0.026,0.026-0.052,0.052-0.08,0.08c-1.908,1.908-6.402,1.888-8.694,1.737c-0.292-0.044-0.59-0.059-0.886-0.082
			c0-1.263,0-2.364,0-3.119c0-0.844,0-1.346,0-1.346c2.739-0.344,5.272-1.579,7.255-3.562
			C162.738,104.387,162.847,104.274,162.954,104.159L162.954,104.159L162.954,104.159z M104.875,113.789
			c-0.904,0.904-1.469,1.469-1.469,1.469c-1.664-1.333-3.621-2.205-5.713-2.554c0-1.339,0-2.508,0-3.298c0-0.836,0-1.333,0-1.333
			c1.105-0.13,2.177-0.404,3.193-0.814c0,0,0.137-0.048,0.22-0.091c0.196-0.083,0.581-0.265,0.581-0.265
			c2.662-1.056,5.615-0.155,7.003,1.233c0.008,0.008,0.015,0.015,0.022,0.022c0.001,0.001,0.002,0.002,0.002,0.002l0,0l0,0
			c-0.001-0.001-0.001-0.001-0.002-0.002c-0.007-0.007-0.015-0.015-0.022-0.022c-1.39-1.39-2.293-4.352-1.228-7.017
			c0.088-0.182,0.172-0.365,0.251-0.551c0.045-0.088,0.097-0.234,0.097-0.234c0.389-0.965,0.655-1.981,0.792-3.026
			c0,0,0.811,0,2.107,0c0.55,0,1.213,0,1.943,0c0.302,2.236,1.189,4.334,2.603,6.1c0,0-0.535,0.535-1.397,1.397
			c-1.261,1.261-4.506,4.506-4.506,4.506S106.154,112.511,104.875,113.789z M112.818,151.463c-0.795,0-1.515,0-2.106,0
			c-1.296,0-2.107,0-2.107,0c-0.137-1.046-0.403-2.061-0.792-3.026c0,0-0.052-0.146-0.097-0.234
			c-0.079-0.186-0.163-0.369-0.251-0.551c-1.065-2.665-0.163-5.627,1.228-7.017c0.008-0.008,0.015-0.015,0.022-0.022
			c0.001-0.001,0.001-0.001,0.002-0.002l0,0l0,0c-0.001,0.001-0.002,0.002-0.002,0.002c-0.007,0.007-0.014,0.014-0.022,0.022
			c-1.388,1.388-4.341,2.289-7.003,1.233c0,0-0.385-0.182-0.581-0.265c-0.083-0.043-0.22-0.091-0.22-0.091
			c-1.017-0.41-2.089-0.684-3.193-0.814c0,0,0-0.806,0-2.094c0-0.369,0-0.789,0-1.244c2.031-0.339,3.934-1.171,5.566-2.439
			c0,0,0.355,0.355,0.951,0.952c1.147,1.147,4.756,4.756,4.756,4.756l0.063,0.063c0,0,3.248,3.248,4.561,4.561
			c0.915,0.915,1.489,1.489,1.489,1.489C113.991,148.144,113.227,149.75,112.818,151.463z M134.057,142.972
			c-0.917,0.917-1.49,1.49-1.49,1.49c-0.836-0.642-1.742-1.172-2.7-1.58c0,0-0.14-0.067-0.234-0.097
			c-0.187-0.075-0.377-0.146-0.568-0.212c-2.638-1.132-4.094-3.863-4.094-5.83c0-0.011,0-0.021,0-0.032c0-0.001,0-0.002,0-0.003h0h0
			c0,0.001,0,0.002,0,0.003c0,0.01,0,0.02,0,0.031c0,1.963-1.451,4.688-4.08,5.823c0,0-0.401,0.144-0.599,0.223
			c-0.089,0.028-0.22,0.091-0.22,0.091c-1.009,0.429-1.961,0.993-2.834,1.683c0,0-0.57-0.57-1.481-1.481
			c-1.31-1.31-4.561-4.561-4.561-4.561l-0.063-0.063c0,0-3.613-3.613-4.756-4.756c-0.591-0.591-0.943-0.943-0.943-0.943
			c0.689-0.873,1.253-1.825,1.683-2.834c0,0,0.063-0.131,0.091-0.22c0.08-0.198,0.223-0.599,0.223-0.599
			c1.135-2.629,3.861-4.08,5.823-4.08c0.011,0,0.021,0,0.031,0c0.001,0,0.002,0,0.003,0v0v0c-0.001,0-0.002,0-0.003,0
			c-0.01,0-0.021,0-0.032,0c-1.966,0-4.698-1.456-5.83-4.094c-0.066-0.191-0.137-0.38-0.212-0.568
			c-0.03-0.094-0.097-0.234-0.097-0.234c-0.408-0.958-0.937-1.864-1.58-2.7c0,0,0.574-0.574,1.49-1.49
			c1.285-1.285,4.48-4.48,4.48-4.48s3.238-3.238,4.506-4.506c0.875-0.875,1.419-1.419,1.419-1.419c0.836,0.642,1.742,1.172,2.7,1.58
			c0,0,0.14,0.067,0.234,0.097c0.187,0.075,0.377,0.146,0.568,0.212c2.638,1.132,4.094,3.864,4.094,5.83c0,0.011,0,0.021,0,0.032
			c0,0.001,0,0.002,0,0.003h0h0c0-0.001,0-0.002,0-0.003c0-0.01,0-0.02,0-0.031c0-1.963,1.451-4.688,4.08-5.823
			c0,0,0.401-0.144,0.599-0.223c0.089-0.028,0.22-0.091,0.22-0.091c1.009-0.429,1.961-0.993,2.834-1.683
			c0,0,0.351,0.351,0.943,0.943c1.143,1.143,4.756,4.756,4.756,4.756l0.063,0.063c0,0,3.25,3.25,4.561,4.561
			c0.91,0.91,1.481,1.481,1.481,1.481c-0.689,0.873-1.253,1.825-1.683,2.834c0,0-0.063,0.131-0.091,0.22
			c-0.08,0.198-0.223,0.599-0.223,0.599c-1.135,2.629-3.861,4.08-5.823,4.08c-0.011,0-0.021,0-0.031,0c-0.001,0-0.002,0-0.003,0v0v0
			c0.001,0,0.002,0,0.003,0c0.01,0,0.021,0,0.032,0c1.966,0,4.698,1.456,5.83,4.094c0.066,0.191,0.137,0.38,0.212,0.567
			c0.03,0.094,0.097,0.234,0.097,0.234c0.408,0.958,0.937,1.864,1.58,2.7c0,0-0.544,0.544-1.419,1.419
			c-1.268,1.268-4.506,4.506-4.506,4.506S135.343,141.687,134.057,142.972z M145.197,136.139c0.862-0.862,1.397-1.397,1.397-1.397
			c1.664,1.333,3.621,2.205,5.713,2.555c0,0.48,0,0.921,0,1.307c0,1.288,0,2.094,0,2.094c-1.105,0.13-2.177,0.404-3.193,0.814
			c0,0-0.137,0.048-0.22,0.091c-0.196,0.083-0.581,0.265-0.581,0.265c-2.662,1.056-5.615,0.155-7.003-1.233
			c-0.008-0.008-0.015-0.015-0.022-0.022c-0.001-0.001-0.002-0.002-0.002-0.002l0,0l0,0c0.001,0.001,0.001,0.001,0.002,0.002
			c0.007,0.007,0.015,0.015,0.022,0.022c1.39,1.39,2.293,4.352,1.228,7.017c-0.088,0.182-0.172,0.365-0.251,0.551
			c-0.045,0.088-0.097,0.234-0.097,0.234c-0.389,0.965-0.655,1.981-0.792,3.026c0,0-0.769,0-2.006,0c-0.627,0-1.405,0-2.271,0
			c-0.424-1.773-1.226-3.431-2.377-4.869c0,0,0.565-0.565,1.469-1.469c1.279-1.279,4.48-4.48,4.48-4.48
			S143.935,137.4,145.197,136.139z M152.307,109.406c0,0.777,0,1.922,0,3.235c-2.031,0.339-3.934,1.172-5.567,2.439
			c0,0-0.574-0.574-1.489-1.489c-1.313-1.313-4.561-4.561-4.561-4.561l-0.063-0.063c0,0-3.609-3.609-4.756-4.756
			c-0.597-0.597-0.952-0.952-0.952-0.952c1.348-1.735,2.194-3.778,2.488-5.953c0.75,0,1.427,0,1.983,0c1.237,0,2.006,0,2.006,0
			c0.137,1.046,0.403,2.061,0.792,3.026c0,0,0.052,0.146,0.097,0.234c0.079,0.186,0.163,0.369,0.251,0.551
			c1.065,2.665,0.163,5.627-1.228,7.017c-0.008,0.008-0.015,0.015-0.022,0.022c-0.001,0.001-0.001,0.001-0.002,0.002l0,0l0,0
			c0.001-0.001,0.002-0.002,0.002-0.002c0.007-0.007,0.014-0.014,0.022-0.022c1.388-1.388,4.341-2.289,7.003-1.233
			c0,0,0.385,0.182,0.581,0.265c0.083,0.043,0.22,0.091,0.22,0.091c1.017,0.41,2.089,0.684,3.193,0.814
			C152.307,108.073,152.307,108.57,152.307,109.406z"/>
	</g>
</g>
<g id="SHINE">
	<circle fill="#FFFFFF" cx="95.405" cy="94.235" r="0.447"/>
	<circle opacity="0.7" fill="#FFFFFF" cx="94.697" cy="94.928" r="0.246"/>
	<circle fill="#FFFFFF" cx="153.084" cy="94.235" r="0.447"/>
	<circle opacity="0.7" fill="#FFFFFF" cx="152.376" cy="94.928" r="0.246"/>
	<circle fill="#FFFFFF" cx="95.405" cy="151.436" r="0.447"/>
	<circle fill="#FFFFFF" cx="153.084" cy="151.436" r="0.447"/>
	<circle opacity="0.7" fill="#FFFFFF" cx="94.697" cy="152.129" r="0.246"/>
	<circle opacity="0.7" fill="#FFFFFF" cx="152.376" cy="152.129" r="0.246"/>
	<circle fill="#FFFFFF" cx="94.033" cy="124.593" r="0.447"/>
	<circle opacity="0.7" fill="#FFFFFF" cx="94.022" cy="125.584" r="0.246"/>
	<circle fill="#FFFFFF" cx="123.525" cy="95.101" r="0.447"/>
	<circle opacity="0.7" fill="#FFFFFF" cx="123.514" cy="96.092" r="0.246"/>
	<circle fill="#FFFFFF" cx="123.255" cy="124.101" r="0.529"/>
	<circle opacity="0.7" fill="#FFFFFF" cx="123.242" cy="125.274" r="0.292"/>
	<circle fill="#FFFFFF" cx="123.215" cy="153.776" r="0.447"/>
	<circle fill="#FFFFFF" cx="152.707" cy="124.284" r="0.447"/>
	<circle opacity="0.7" fill="#FFFFFF" cx="123.205" cy="154.767" r="0.246"/>
	<circle opacity="0.7" fill="#FFFFFF" cx="152.697" cy="125.275" r="0.246"/>
</g>
</svg>
