<?xml version="1.0" encoding="utf-8"?>
<!-- Generator: Adobe Illustrator 17.0.0, SVG Export Plug-In . SVG Version: 6.00 Build 0)  -->
<!DOCTYPE svg PUBLIC "-//W3C//DTD SVG 1.1//EN" "http://www.w3.org/Graphics/SVG/1.1/DTD/svg11.dtd">
<svg version="1.1" xmlns="http://www.w3.org/2000/svg" xmlns:xlink="http://www.w3.org/1999/xlink" x="0px" y="0px" width="250px"
	 height="250px" viewBox="0 0 250 250" enable-background="new 0 0 250 250" xml:space="preserve">
<g id="Layer_3">
	<g id="Rings_x2F_Hex">
	</g>
</g>
<g id="Layer_19">
	<g>
		<path fill="#F04E50" d="M112.441,103.236c0.054,0.625,0.082,1.258,0.082,1.898c0,2.267-0.346,4.453-0.986,6.512
			c2.262,1.158,4.691,2.034,7.243,2.58c0.779-2.403,1.258-4.939,1.391-7.565C117.35,106.029,114.737,104.848,112.441,103.236z"/>
	</g>
</g>
<g id="Layer_20">
	<path fill="#F04E50" d="M146.848,87.168c0.054-0.625,0.082-1.258,0.082-1.898c0-2.267-0.346-4.453-0.986-6.512
		C143.164,69.834,134.825,63.34,125,63.34c-9.825,0-18.164,6.494-20.944,15.418c-0.64,2.06-0.986,4.245-0.986,6.512
		c0,0.64,0.028,1.273,0.082,1.898c0.571,6.641,4.114,12.443,9.289,16.068c0.054,0.625,0.082,1.258,0.082,1.898
		c0,2.267-0.346,4.453-0.986,6.512c-9.582-4.914-16.153-14.892-16.153-26.378c0-0.512,0.013-1.022,0.039-1.527
		c0.133-2.626,0.612-5.162,1.391-7.565c3.846-11.895,15.028-20.524,28.186-20.524s24.341,8.629,28.186,20.524
		c0.779,2.403,1.258,4.939,1.391,7.565C151.757,84.376,149.143,85.557,146.848,87.168z"/>
</g>
<g id="Layer_23">
	<path fill="#8BC540" d="M159.407,75.519c-2.134,0-4.214,0.225-6.22,0.658c-2.552,0.546-4.98,1.422-7.243,2.58
		c-9.582,4.914-16.153,14.892-16.153,26.378c0,0.512,0.013,1.022,0.038,1.527c2.821-0.633,5.434-1.814,7.729-3.425
		c0.571-6.641,4.114-12.443,9.29-16.068c2.295-1.611,4.909-2.793,7.729-3.425c1.555-0.354,3.172-0.538,4.829-0.538
		c12.095,0,21.933,9.838,21.933,21.93c0,5.739-2.216,10.97-5.836,14.882c-1.916,2.07-4.227,3.771-6.81,4.983
		c2.582,1.212,4.893,2.913,6.81,4.983c2.16-1.401,4.127-3.079,5.849-4.983c4.765-5.257,7.673-12.228,7.673-19.865
		C189.025,88.805,175.739,75.519,159.407,75.519z"/>
</g>
<g id="Layer_24">
	<path fill="#F04E50" d="M154.616,85.27c0,11.485-6.571,21.464-16.153,26.378c-2.262,1.158-4.691,2.034-7.243,2.58
		c-2.006,0.433-4.086,0.658-6.22,0.658c-2.134,0-4.214-0.225-6.22-0.658c0.779-2.403,1.258-4.939,1.391-7.565
		c1.555,0.354,3.172,0.538,4.829,0.538c1.658,0,3.274-0.184,4.829-0.538c2.821-0.633,5.434-1.814,7.729-3.425
		c5.175-3.625,8.718-9.428,9.29-16.068c2.295-1.611,4.909-2.793,7.729-3.425C154.603,84.247,154.616,84.757,154.616,85.27z"/>
</g>
<g id="Layer_22">
	<g>
		<path fill="#F04E50" d="M131.22,135.773c-0.779,2.403-1.255,4.939-1.391,7.565c-1.555-0.354-3.172-0.538-4.829-0.538
			c-1.658,0-3.274,0.184-4.829,0.538c-2.821,0.633-5.434,1.814-7.729,3.425c0.054-0.625,0.082-1.258,0.082-1.898
			c0-2.267-0.346-4.453-0.986-6.512c2.262-1.158,4.691-2.034,7.243-2.58c2.006-0.433,4.086-0.658,6.22-0.658
			C127.134,135.115,129.214,135.34,131.22,135.773z"/>
		<path fill="#F04E50" d="M154.616,164.73c0,0.512-0.013,1.022-0.038,1.527c-0.133,2.626-0.612,5.162-1.391,7.565
			c-3.845,11.895-15.028,20.524-28.186,20.524s-24.341-8.629-28.186-20.524c-0.779-2.403-1.258-4.939-1.391-7.565
			c-0.026-0.505-0.039-1.015-0.039-1.527c0-11.485,6.571-21.464,16.153-26.378c0.64,2.06,0.986,4.245,0.986,6.512
			c0,0.64-0.028,1.273-0.082,1.898c-5.175,3.625-8.718,9.428-9.289,16.068c-0.054,0.625-0.082,1.258-0.082,1.898
			c0,2.267,0.346,4.453,0.986,6.512c2.78,8.923,11.119,15.418,20.944,15.418c9.825,0,18.164-6.495,20.944-15.418
			c0.64-2.06,0.986-4.245,0.986-6.512c0-0.64-0.028-1.273-0.082-1.898c-0.571-6.641-4.114-12.443-9.29-16.068
			c-0.054-0.625-0.082-1.258-0.082-1.898c0-2.265,0.346-4.453,0.986-6.51C148.044,143.267,154.616,153.245,154.616,164.73z"/>
	</g>
</g>
<g id="Layer_12">
	<path fill="#3F66AF" d="M181.352,125c-1.722-1.904-3.689-3.582-5.849-4.983c-4.637-3.015-10.166-4.768-16.097-4.768
		c-5.931,0-11.459,1.752-16.094,4.768c1.916,2.07,4.225,3.771,6.807,4.983c2.821-1.325,5.969-2.065,9.287-2.065
		c3.318,0,6.466,0.74,9.287,2.065c2.582,1.212,4.893,2.913,6.81,4.983c3.62,3.912,5.836,9.144,5.836,14.882
		c0,12.092-9.838,21.93-21.933,21.93c-1.658,0-3.274-0.184-4.829-0.538c-0.133,2.626-0.612,5.162-1.391,7.565
		c2.006,0.433,4.086,0.658,6.22,0.658c16.332,0,29.618-13.286,29.618-29.616C189.025,137.228,186.117,130.257,181.352,125z"/>
</g>
<g id="Layer_13">
	<path fill="#3F66AF" d="M146.93,164.73c0,2.267-0.346,4.453-0.986,6.512c-9.582-4.914-16.153-14.893-16.153-26.378
		c0-0.512,0.013-1.02,0.038-1.527c0.136-2.626,0.612-5.162,1.391-7.565c1.304-4.038,3.456-7.699,6.243-10.773
		c1.722,1.903,3.689,3.582,5.849,4.983c-2.19,2.367-3.868,5.219-4.85,8.372c-0.64,2.057-0.986,4.245-0.986,6.51
		c0,0.64,0.028,1.273,0.082,1.898c0.571,6.641,4.114,12.443,9.29,16.068C146.902,163.457,146.93,164.09,146.93,164.73z"/>
</g>
<g id="Layer_14">
	<path fill="#8BC540" d="M175.503,129.983c-4.637,3.015-10.166,4.768-16.097,4.768c-5.931,0-11.457-1.752-16.094-4.768
		c-2.16-1.401-4.127-3.079-5.849-4.983c-2.787-3.074-4.939-6.735-6.243-10.773c2.552-0.546,4.98-1.422,7.243-2.58
		c0.984,3.154,2.659,6.003,4.85,8.37c1.916,2.07,4.225,3.771,6.807,4.983c2.821,1.324,5.969,2.065,9.287,2.065
		c3.318,0,6.466-0.74,9.287-2.065C171.276,126.212,173.587,127.913,175.503,129.983z"/>
</g>
<g id="Layer_16">
	<g>
		<path fill="#8BC540" d="M120.171,143.338c-2.821,0.633-5.434,1.814-7.729,3.425c-0.571,6.641-4.114,12.443-9.289,16.068
			c-2.295,1.611-4.909,2.793-7.729,3.425c-1.555,0.354-3.172,0.538-4.829,0.538c-12.092,0-21.933-9.838-21.933-21.93
			c0-5.739,2.216-10.968,5.839-14.88c1.914-2.07,4.222-3.774,6.807-4.986c-2.585-1.212-4.893-2.916-6.807-4.986
			c-2.162,1.404-4.13,3.082-5.852,4.986c-4.765,5.257-7.673,12.228-7.673,19.865c0,16.33,13.286,29.616,29.618,29.616
			c2.134,0,4.214-0.225,6.22-0.658c2.552-0.546,4.98-1.422,7.243-2.58c9.582-4.914,16.153-14.893,16.153-26.378
			C120.209,144.353,120.196,143.843,120.171,143.338z"/>
		<path fill="#8BC540" d="M118.779,135.773c-2.552,0.546-4.98,1.422-7.243,2.58c-0.984-3.154-2.659-6.003-4.85-8.37
			c-1.916-2.07-4.225-3.771-6.807-4.983c-2.821-1.325-5.969-2.065-9.287-2.065c-3.318,0-6.466,0.74-9.287,2.065
			c-2.585-1.212-4.893-2.916-6.807-4.986c4.634-3.015,10.163-4.765,16.094-4.765c5.931,0,11.457,1.752,16.094,4.768
			c2.16,1.401,4.127,3.079,5.849,4.983C115.323,128.074,117.476,131.735,118.779,135.773z"/>
	</g>
</g>
<g id="Layer_17">
	<path fill="#3F66AF" d="M104.056,78.757c-0.64,2.06-0.986,4.245-0.986,6.512c0,0.64,0.028,1.273,0.082,1.898
		c5.175,3.625,8.718,9.428,9.289,16.068c0.054,0.625,0.082,1.258,0.082,1.898c0,2.267-0.346,4.453-0.986,6.512
		c-0.984,3.151-2.659,6.003-4.85,8.37c2.16,1.401,4.127,3.079,5.849,4.983c2.79-3.074,4.939-6.735,6.243-10.773
		c0.779-2.403,1.258-4.939,1.391-7.565c0.026-0.505,0.039-1.015,0.039-1.527C120.209,93.65,113.638,83.671,104.056,78.757z
		 M99.88,125c-2.821,1.324-5.969,2.065-9.287,2.065c-3.318,0-6.466-0.74-9.287-2.065c-2.585-1.212-4.893-2.916-6.807-4.986
		c-3.623-3.912-5.839-9.141-5.839-14.88c0-12.092,9.84-21.93,21.933-21.93c1.658,0,3.274,0.184,4.829,0.538
		c0.133-2.626,0.612-5.162,1.391-7.565c-2.006-0.433-4.086-0.658-6.22-0.658c-16.332,0-29.618,13.286-29.618,29.616
		c0,7.637,2.908,14.608,7.673,19.865c1.722,1.903,3.689,3.582,5.852,4.986c4.634,3.015,10.163,4.765,16.094,4.765
		c5.931,0,11.459-1.752,16.094-4.768C104.771,127.913,102.463,126.212,99.88,125z"/>
</g>
<g id="Layer_18">
</g>
<g id="Layer_11">
	<g>
		<g>
			<path fill="#F04E50" stroke="#000000" stroke-width="2.5619" stroke-miterlimit="10" d="M97.193,141.046
				c0.799-0.069,1.607-0.105,2.426-0.105c2.897,0,5.689,0.442,8.321,1.26c1.48-2.89,2.599-5.994,3.296-9.254
				c-3.07-0.995-6.311-1.607-9.666-1.777C100.761,134.774,99.252,138.113,97.193,141.046z"/>
		</g>
	</g>
</g>
<g id="_x34_">
	<path fill="#F04E50" stroke="#000000" stroke-width="2.5619" stroke-miterlimit="10" d="M76.662,97.085
		c-0.799-0.069-1.607-0.105-2.426-0.105c-2.897,0-5.689,0.442-8.321,1.26c-11.401,3.552-19.699,14.206-19.699,26.76
		s8.298,23.208,19.699,26.76c2.632,0.818,5.424,1.26,8.321,1.26c0.818,0,1.627-0.036,2.426-0.105
		c8.485-0.73,15.899-5.257,20.531-11.869c0.799-0.069,1.607-0.105,2.426-0.105c2.897,0,5.689,0.442,8.321,1.26
		c-6.278,12.242-19.028,20.639-33.703,20.639c-0.655,0-1.306-0.016-1.951-0.049c-3.355-0.17-6.596-0.782-9.666-1.777
		C47.421,156.1,36.396,141.812,36.396,125s11.025-31.1,26.223-36.014c3.07-0.995,6.311-1.607,9.666-1.778
		C73.094,90.813,74.603,94.152,76.662,97.085z"/>
</g>
<g id="Layer_25">
	<path fill="#8BC540" stroke="#000000" stroke-width="2.5619" stroke-miterlimit="10" d="M61.778,81.039
		c0,2.727,0.288,5.385,0.841,7.948c0.697,3.26,1.817,6.363,3.296,9.254c6.278,12.242,19.028,20.639,33.703,20.639
		c0.655,0,1.306-0.016,1.951-0.049c-0.809-3.604-2.318-6.943-4.377-9.876c-8.485-0.73-15.899-5.257-20.531-11.869
		c-2.059-2.933-3.568-6.272-4.377-9.876c-0.452-1.987-0.687-4.052-0.687-6.17c0-15.454,12.57-28.023,28.02-28.023
		c7.332,0,14.017,2.831,19.015,7.457c2.645,2.449,4.818,5.401,6.367,8.701c1.548-3.3,3.722-6.252,6.367-8.701
		c-1.791-2.759-3.935-5.273-6.367-7.473c-6.717-6.089-15.624-9.804-25.382-9.804C78.754,43.195,61.778,60.171,61.778,81.039z"/>
</g>
<g id="Layer_26">
	<path fill="#F04E50" stroke="#000000" stroke-width="2.5619" stroke-miterlimit="10" d="M74.236,87.16
		c14.675,0,27.424,8.396,33.703,20.639c1.48,2.89,2.599,5.994,3.296,9.254c0.553,2.563,0.841,5.221,0.841,7.948
		c0,2.727-0.288,5.385-0.841,7.948c-3.07-0.995-6.311-1.607-9.666-1.777c0.452-1.987,0.687-4.053,0.687-6.17
		c0-2.118-0.236-4.183-0.687-6.17c-0.809-3.604-2.318-6.943-4.377-9.876c-4.632-6.612-12.046-11.139-20.531-11.869
		c-2.059-2.933-3.568-6.272-4.377-9.876C72.93,87.176,73.582,87.16,74.236,87.16z"/>
</g>
<g id="Layer_8">
	<path fill="#F04E50" stroke="#000000" stroke-width="2.5619" stroke-miterlimit="10" d="M187.381,88.986
		c-3.07-0.995-6.311-1.607-9.666-1.778c-0.645-0.033-1.296-0.049-1.951-0.049c-14.674,0-27.424,8.396-33.699,20.639
		c2.629,0.818,5.424,1.26,8.318,1.26c0.818,0,1.627-0.036,2.426-0.105c4.632-6.612,12.046-11.139,20.531-11.869
		c0.799-0.069,1.607-0.105,2.426-0.105c2.897,0,5.689,0.442,8.321,1.26c11.401,3.552,19.699,14.206,19.699,26.76
		c0,12.553-8.298,23.208-19.699,26.76c-2.632,0.818-5.424,1.26-8.321,1.26c-0.818,0-1.627-0.036-2.426-0.105
		c-8.485-0.73-15.899-5.257-20.531-11.869c-2.059-2.933-3.568-6.272-4.376-9.876c-0.452-1.987-0.687-4.053-0.687-6.17
		c0-2.118,0.236-4.183,0.687-6.17c-3.355-0.174-6.596-0.782-9.666-1.777c-0.553,2.563-0.841,5.221-0.841,7.948
		c0,2.727,0.288,5.385,0.841,7.948c0.697,3.26,1.817,6.363,3.296,9.254c6.278,12.242,19.028,20.639,33.703,20.639
		c0.655,0,1.306-0.016,1.951-0.049c3.355-0.17,6.596-0.782,9.666-1.777c15.198-4.913,26.223-19.202,26.223-36.014
		C213.604,108.188,202.579,93.9,187.381,88.986z"/>
</g>
<g id="Layer_9">
	<path fill="#3F66AF" stroke="#000000" stroke-width="2.5619" stroke-miterlimit="10" d="M125,52.999
		c-2.432,2.2-4.576,4.714-6.367,7.473c-3.853,5.925-6.092,12.989-6.092,20.567c0,7.578,2.239,14.642,6.092,20.563
		c2.645-2.448,4.818-5.398,6.367-8.697c-1.692-3.604-2.638-7.627-2.638-11.866c0-4.239,0.946-8.262,2.638-11.866
		c1.548-3.3,3.722-6.252,6.367-8.701c4.998-4.625,11.683-7.457,19.015-7.457c15.45,0,28.02,12.57,28.02,28.023
		c0,2.118-0.236,4.183-0.687,6.17c3.355,0.17,6.596,0.782,9.666,1.778c0.553-2.563,0.841-5.221,0.841-7.948
		c0-20.868-16.976-37.843-37.84-37.843C140.624,43.195,131.717,46.91,125,52.999z"/>
</g>
<g id="Layer_10">
	<path fill="#3F66AF" stroke="#000000" stroke-width="2.5619" stroke-miterlimit="10" d="M175.764,96.98
		c2.897,0,5.689,0.442,8.321,1.26c-6.278,12.242-19.028,20.639-33.703,20.639c-0.655,0-1.303-0.016-1.951-0.049
		c-3.355-0.174-6.596-0.782-9.666-1.778c-5.159-1.666-9.836-4.416-13.765-7.977c2.432-2.2,4.576-4.714,6.367-7.473
		c3.025,2.799,6.668,4.943,10.697,6.196c2.629,0.818,5.424,1.26,8.318,1.26c0.818,0,1.627-0.036,2.426-0.105
		c8.485-0.73,15.899-5.257,20.531-11.869C174.137,97.016,174.945,96.98,175.764,96.98z"/>
</g>
<g id="_x33_">
	<path fill="#8BC540" stroke="#000000" stroke-width="2.5619" stroke-miterlimit="10" d="M131.367,60.472
		c3.853,5.925,6.092,12.989,6.092,20.567c0,7.578-2.239,14.639-6.092,20.563c-1.791,2.759-3.935,5.273-6.367,7.473
		c-3.928,3.561-8.606,6.311-13.765,7.977c-0.697-3.26-1.817-6.363-3.296-9.254c4.03-1.257,7.67-3.398,10.694-6.196
		c2.645-2.448,4.818-5.398,6.367-8.697c1.692-3.604,2.638-7.627,2.638-11.866c0-4.239-0.946-8.262-2.638-11.866
		C126.548,65.873,128.722,62.921,131.367,60.472z"/>
</g>
<g id="_x32_">
	<g>
		<path fill="#8BC540" stroke="#000000" stroke-width="2.5619" stroke-miterlimit="10" d="M148.431,131.171
			c0.809,3.604,2.318,6.943,4.377,9.876c8.485,0.73,15.899,5.257,20.531,11.869c2.059,2.933,3.568,6.272,4.376,9.876
			c0.452,1.987,0.687,4.052,0.687,6.17c0,15.45-12.57,28.023-28.02,28.023c-7.332,0-14.013-2.831-19.012-7.46
			c-2.645-2.445-4.822-5.394-6.37-8.697c-1.548,3.303-3.725,6.252-6.37,8.697c1.794,2.763,3.938,5.277,6.37,7.477
			c6.717,6.089,15.624,9.804,25.382,9.804c20.865,0,37.84-16.976,37.84-37.843c0-2.727-0.288-5.385-0.841-7.948
			c-0.697-3.26-1.817-6.364-3.296-9.254c-6.278-12.242-19.028-20.639-33.703-20.639
			C149.727,131.121,149.076,131.138,148.431,131.171z"/>
		<path fill="#8BC540" stroke="#000000" stroke-width="2.5619" stroke-miterlimit="10" d="M138.765,132.948
			c0.697,3.26,1.817,6.363,3.296,9.254c-4.03,1.257-7.67,3.398-10.694,6.197c-2.645,2.448-4.818,5.398-6.367,8.697
			c-1.692,3.604-2.638,7.627-2.638,11.866c0,4.239,0.946,8.262,2.638,11.866c-1.548,3.303-3.725,6.252-6.37,8.697
			c-3.853-5.921-6.088-12.985-6.088-20.563c0-7.578,2.239-14.639,6.092-20.563c1.791-2.76,3.935-5.274,6.367-7.473
			C128.928,137.364,133.606,134.614,138.765,132.948z"/>
	</g>
</g>
<g id="_x31_">
	<path fill="#3F66AF" stroke="#000000" stroke-width="2.5619" stroke-miterlimit="10" d="M65.916,151.76
		c2.632,0.818,5.424,1.26,8.321,1.26c0.818,0,1.627-0.036,2.426-0.105c4.632-6.612,12.046-11.139,20.531-11.869
		c0.799-0.069,1.607-0.105,2.426-0.105c2.897,0,5.689,0.442,8.321,1.26c4.026,1.257,7.67,3.398,10.694,6.197
		c1.791-2.76,3.935-5.274,6.367-7.473c-3.928-3.565-8.606-6.311-13.765-7.977c-3.07-0.995-6.311-1.607-9.666-1.777
		c-0.645-0.033-1.296-0.049-1.951-0.049C84.944,131.121,72.194,139.518,65.916,151.76z M125,157.096
		c1.692,3.604,2.638,7.627,2.638,11.866c0,4.239-0.946,8.262-2.638,11.866c-1.548,3.303-3.725,6.252-6.37,8.697
		c-4.998,4.629-11.679,7.46-19.012,7.46c-15.45,0-28.02-12.573-28.02-28.023c0-2.118,0.236-4.183,0.687-6.17
		c-3.355-0.17-6.596-0.782-9.666-1.777c-0.553,2.563-0.841,5.221-0.841,7.948c0,20.868,16.976,37.843,37.84,37.843
		c9.758,0,18.665-3.715,25.382-9.804c2.432-2.2,4.576-4.714,6.37-7.477c3.853-5.921,6.088-12.985,6.088-20.563
		c0-7.578-2.239-14.642-6.092-20.563C128.722,150.847,126.548,153.796,125,157.096z"/>
</g>
</svg>
